<svg width="359" height="83" viewBox="0 0 359 83" fill="none" xmlns="http://www.w3.org/2000/svg">
<line x1="173.5" y1="71" x2="173.5" y2="12" stroke="#400315" stroke-width="3"/>
<path d="M295 11L269 38" stroke="#400315" stroke-width="3" stroke-linecap="square"/>
<path d="M77.0004 37.9996L51 11" stroke="#400315" stroke-width="3" stroke-linecap="square"/>
<path d="M259 44L229 44" stroke="#400315" stroke-width="3"/>
<path d="M115 44H88" stroke="#400315" stroke-width="3"/>
<path d="M196 77L234 44" stroke="#400315" stroke-width="3"/>
<path d="M112 44L150.001 76.9988" stroke="#400315" stroke-width="3"/>
<path d="M199 77H180" stroke="#400315" stroke-width="3"/>
<path d="M168 77H149" stroke="#400315" stroke-width="3"/>
<circle cx="173.5" cy="6.5" r="6" stroke="#AD0537"/>
<circle cx="173.5" cy="41.5" r="4.5" fill="#AD0537"/>
<circle cx="45.5" cy="6.5" r="6" stroke="#AD0537"/>
<circle cx="4.5" cy="43.5" r="4.5" fill="#030303"/>
<circle cx="300.5" cy="6.5" r="6" stroke="#AD0537"/>
<circle cx="264.5" cy="43.5" r="6" stroke="#AD0537"/>
<circle cx="81.5" cy="43.5" r="6" stroke="#AD0537"/>
<circle cx="281.5" cy="24.5" r="4.5" fill="#AD0537"/>
<circle cx="64.5" cy="24.5" r="4.5" fill="#AD0537"/>
<circle cx="173.5" cy="76.5" r="6" stroke="#AD0537"/>
<circle cx="150.5" cy="76.5" r="4.5" fill="#AD0537"/>
<circle cx="196.5" cy="76.5" r="4.5" fill="#AD0537"/>
<circle cx="233.5" cy="44.5" r="4.5" fill="#AD0537"/>
<circle cx="112.5" cy="44.5" r="4.5" fill="#AD0537"/>
<circle cx="354.5" cy="43.5" r="4.5" fill="#030303"/>
</svg>
